HIERARCHY
ROOT Hips
{
	OFFSET 0.000000 0.000000 0.000000
	CHANNELS 6 Xposition Yposition Zposition Zrotation Yrotation Xrotation 
	JOINT LHipJoint
	{
		OFFSET 0.000000 0.000000 0.000000
		CHANNELS 3 Zrotation Yrotation Xrotation
		JOINT LeftUpLeg
		{
			OFFSET 1.363060 -1.794630 0.839290
			CHANNELS 3 Zrotation Yrotation Xrotation
			JOINT LeftLeg
			{
				OFFSET 2.448110 -6.726130 0.000000
				CHANNELS 3 Zrotation Yrotation Xrotation
				JOINT LeftFoot
				{
					OFFSET 2.562200 -7.039590 0.000000
					CHANNELS 3 Zrotation Yrotation Xrotation
					JOINT LeftToeBase
					{
						OFFSET 0.157640 -0.433110 2.322550
						CHANNELS 3 Zrotation Yrotation Xrotation
						End Site
						{
							OFFSET 0.000000 0.000000 0.000000
						}
					}
				}
			}
		}
	}
	JOINT RHipJoint
	{
		OFFSET 0.000000 0.000000 0.000000
		CHANNELS 3 Zrotation Yrotation Xrotation
		JOINT RightUpLeg
		{
			OFFSET -1.305520 -1.794630 0.839290
			CHANNELS 3 Zrotation Yrotation Xrotation
			JOINT RightLeg
			{
				OFFSET -2.542530 -6.985550 0.000000
				CHANNELS 3 Zrotation Yrotation Xrotation
				JOINT RightFoot
				{
					OFFSET -2.568260 -7.056230 0.000000
					CHANNELS 3 Zrotation Yrotation Xrotation
					JOINT RightToeBase
					{
						OFFSET -0.164730 -0.452590 2.363150
						CHANNELS 3 Zrotation Yrotation Xrotation
						End Site
						{
							OFFSET 0.000000 0.000000 0.000000
						}
					}
				}
			}
		}
	}
}
MOTION
Frames: 14
Frame Time: 0.008333
-2.284295 16.890179 -0.323286 3.098398 73.182967 5.240885 -10.539319 0.699729 2.888977 -1.653415 -0.421048 -25.925545 -1.566680 0.536045 15.394318 0.175878 -0.026709 5.624243 0.139100 -0.000000 -41.449300 9.384741 -3.114544 -0.800191 6.520935 -1.506080 9.931490 1.355946 -2.535144 28.558495 0.502948 5.666529 0.275824 0.575699 0.000000 -65.775700
-2.122235 16.892153 -0.303054 3.723342 72.432528 5.647351 -10.587474 0.790789 2.672489 -2.035862 0.655123 -25.671993 -1.558747 0.613254 16.332329 0.195834 0.050435 5.989519 0.143100 0.000000 -40.944500 9.554746 -3.196909 -0.803225 5.740217 -1.849112 9.309000 1.119174 -2.703645 30.368042 0.493152 5.826242 1.811227 0.741200 -0.000000 -68.168600
-1.963131 16.894763 -0.281552 4.340902 71.657369 6.040843 -10.626886 0.883045 2.442001 -2.448436 1.842981 -25.378315 -1.572956 0.674768 17.166704 0.207337 0.072922 6.120146 0.137400 -0.000000 -40.358900 9.734984 -3.268709 -0.806662 4.930213 -2.243417 8.581132 0.868296 -2.859594 32.276374 0.457876 5.904404 3.388720 0.915700 0.000000 -69.823201
-1.807097 16.897731 -0.258881 4.941633 70.860149 6.418906 -10.656083 0.976278 2.208048 -2.872880 3.073538 -25.042715 -1.606460 0.721887 17.906345 0.212145 0.064499 6.006377 0.127400 -0.000001 -39.744100 9.922818 -3.326376 -0.812116 4.104980 -2.680334 7.753749 0.607760 -3.000601 34.269977 0.392214 5.845672 4.968579 1.079000 -0.000000 -70.680200
-1.654182 16.900811 -0.235144 5.512900 70.043256 6.775238 -10.674326 1.070006 1.980743 -3.292660 4.280244 -24.662394 -1.654284 0.755968 18.561145 0.213785 0.060149 5.659600 0.120600 0.000001 -39.163400 10.115270 -3.366636 -0.821286 3.280851 -3.149861 6.834229 0.342812 -3.125499 36.335185 0.292568 5.587464 6.501663 1.201800 0.000000 -70.671799
-1.504352 16.903907 -0.210488 6.040343 69.206662 7.101045 -10.681484 1.163338 1.769254 -3.693317 5.402716 -24.234640 -1.710041 0.778215 19.139564 0.217220 0.103173 5.107475 0.124800 -0.000000 -38.663300 10.308893 -3.386735 -0.835352 2.477108 -3.639245 5.832876 0.079014 -3.234145 38.451853 0.156867 5.066639 7.939504 1.248800 -0.000001 -69.890900
-1.357589 16.906945 -0.185059 6.510657 68.350127 7.386604 -10.677980 1.255160 1.580940 -4.063378 6.391484 -23.755930 -1.766716 0.789742 19.647117 0.228114 0.238745 4.391585 0.145700 -0.000000 -38.287300 10.500362 -3.384632 -0.855409 1.712147 -4.136627 4.761638 -0.178229 -3.327477 40.597391 -0.015535 4.228606 9.232762 1.183099 0.000000 -68.435800
-1.213748 16.910002 -0.158940 6.911893 67.472141 7.622430 -10.664704 1.344346 1.420701 -4.395237 7.213059 -23.224458 -1.817670 0.791724 20.087940 0.252001 0.506571 3.560647 0.184800 0.000000 -38.062300 10.686665 -3.359441 -0.882274 1.001950 -4.631916 3.631625 -0.423164 -3.407592 42.754515 -0.222811 3.042926 10.312679 0.974200 -0.000000 -66.169300
-1.072836 16.913230 -0.132266 7.235673 66.570759 7.799834 -10.643110 1.429762 1.290450 -4.683727 7.851612 -22.639605 -1.857237 0.785532 20.464216 0.293705 0.936063 2.666341 0.239600 -0.000000 -37.995100 10.864739 -3.311153 -0.915751 0.361739 -5.114368 2.457865 -0.651631 -3.476470 44.889970 -0.463207 1.498798 11.141921 0.606500 0.000000 -63.366000
-0.934740 16.916829 -0.105111 7.476073 65.643841 7.911090 -10.615105 1.510621 1.189034 -4.926865 8.311324 -22.003846 -1.881485 0.772824 20.778562 0.356510 1.540003 1.757600 0.304500 0.000001 -38.074600 11.031940 -3.241229 -0.955394 -0.197488 -5.576591 1.253826 -0.859451 -3.536691 46.976907 -0.732127 -0.374255 11.668344 0.086600 0.000000 -60.027600
-0.799427 16.921056 -0.077586 7.630189 64.689869 7.950133 -10.583187 1.586575 1.112373 -5.124112 8.615452 -21.321825 -1.888542 0.755487 21.033719 0.441613 2.312130 0.876947 0.372700 0.000000 -38.274200 11.185664 -3.152394 -0.999871 -0.667128 -6.011937 0.033954 -1.043625 -3.590442 48.982120 -1.023364 -2.513043 11.860225 -0.553500 -0.000000 -56.314499
-0.666862 16.926048 -0.049700 7.699726 63.707549 7.914559 -10.550034 1.657855 1.054410 -5.276946 8.802175 -20.601302 -1.878753 0.735448 21.233112 0.547781 3.227757 0.057563 0.438500 0.000000 -38.556800 11.323880 -3.048944 -1.048086 -1.043484 -6.419265 -1.191766 -1.201395 -3.640378 50.882714 -1.326223 -4.812222 11.669618 -1.253400 -0.000000 -52.086500
-0.537000 16.932000 -0.021499 7.685481 62.696799 7.801415 -10.518980 1.725076 1.007587 -5.384907 8.920517 -19.850481 -1.854238 0.714543 21.379427 0.671277 4.246543 -0.677726 0.497799 0.000000 -38.882500 11.444258 -2.935634 -1.097341 -1.321948 -6.794515 -2.410351 -1.332348 -3.687161 52.641529 -1.630465 -7.154783 11.120321 -1.941100 -0.000000 -47.771800
-0.409828 16.938919 0.007088 7.595150 61.658730 7.614751 -10.492756 1.789426 0.964157 -5.449895 9.022655 -19.078007 -1.818895 0.694169 21.474823 0.806176 5.317919 -1.318690 0.548500 0.000000 -39.212900 11.545629 -2.817956 -1.146408 -1.504435 -7.141949 -3.616526 -1.435589 -3.732133 54.241748 -1.920893 -9.399890 10.203026 -2.533500 0.000000 -43.270000
